<svg version="1.1" id="Layer_1" xmlns="http://www.w3.org/2000/svg" xmlns:xlink="http://www.w3.org/1999/xlink" x="0px" y="0px"
	 width="100%" viewBox="0 0 240 240" enable-background="new 0 0 240 240" xml:space="preserve">
<path fill="#FFA500" opacity="1.000000" stroke="none" 
	d="
M1.000000,93.000000 
	C1.000000,76.645775 1.000000,60.291546 1.457305,43.468658 
	C6.684283,43.333141 11.465063,43.556042 16.220041,44.035065 
	C19.881363,44.403908 21.144102,43.134048 21.080690,39.336323 
	C20.867369,26.560659 20.999832,13.779225 21.000000,1.000000 
	C36.354229,1.000000 51.708454,1.000000 67.531342,1.468657 
	C68.000008,14.915895 68.148186,27.897175 67.911720,40.871445 
	C67.838661,44.880032 69.468925,46.043724 73.049934,46.019974 
	C88.021294,45.920685 102.993164,45.896809 118.431870,45.908932 
	C135.943939,45.929924 152.988983,45.887280 170.478180,45.915619 
	C188.971100,45.299030 207.019897,44.611465 225.037292,44.396606 
	C225.337204,61.522892 225.668549,78.176468 225.919617,94.821564 
	C225.839325,94.813072 225.758316,94.952744 225.306580,94.973129 
	C209.634232,95.329010 194.412430,95.620781 179.194305,96.045059 
	C176.788345,96.112129 174.399063,96.777428 171.537750,97.097778 
	C154.066177,97.040070 137.058914,97.050728 119.581512,97.039932 
	C103.057022,96.699448 87.002678,96.380409 70.505859,96.036163 
	C54.697613,95.392441 39.331837,94.773918 23.525824,94.084366 
	C15.723727,93.675552 8.361864,93.337776 1.000000,93.000000 
z"/>
<path fill="#FFFF00" opacity="1.000000" stroke="none" 
	d="
M182.000000,241.000000 
	C178.969406,241.000000 175.938812,241.000000 172.165771,240.695801 
	C154.488785,239.261307 137.545670,238.244217 120.622971,236.958267 
	C110.458176,236.185837 100.325249,234.994064 90.093262,233.925140 
	C90.008522,233.859543 89.857140,234.011261 89.923447,233.590424 
	C87.329536,218.824615 84.669327,204.479645 82.433151,190.088379 
	C89.362404,190.693542 95.855484,191.530838 102.375443,191.956451 
	C114.720673,192.762314 127.074326,193.617645 139.437515,193.920761 
	C152.257919,194.235092 165.093765,193.919403 177.946686,194.343567 
	C179.313675,210.205261 180.656830,225.602631 182.000000,241.000000 
z"/>
<path fill="#FFA500" opacity="1.000000" stroke="none" 
	d="
M182.468658,241.000000 
	C180.656830,225.602631 179.313675,210.205261 177.957138,194.378250 
	C177.943756,193.948608 177.873322,193.963608 178.351898,193.974854 
	C193.806335,193.990662 208.784332,193.856934 223.756638,194.089539 
	C227.898010,194.153885 229.313705,192.960571 229.063110,188.774918 
	C228.192245,174.229004 227.586075,159.667236 226.870773,145.013184 
	C226.862320,144.914871 227.021637,144.798401 227.447739,144.881134 
	C232.249222,144.642578 236.624619,144.321289 241.000000,144.000000 
	C241.000000,176.242401 241.000000,208.484802 241.000000,241.000000 
	C221.646622,241.000000 202.291977,241.000000 182.468658,241.000000 
z"/>
<path fill="#0000FF" opacity="1.000000" stroke="none" 
	d="
M1.000000,93.468658 
	C8.361864,93.337776 15.723727,93.675552 23.543297,94.496170 
	C24.667198,100.014992 25.435488,105.039993 25.978197,110.089233 
	C27.085939,120.395416 27.681330,130.772614 29.200142,141.014923 
	C31.482365,156.405411 34.376461,171.705185 36.541428,187.024872 
	C24.381636,186.670822 12.690817,186.335419 1.000000,186.000000 
	C1.000000,155.312439 1.000000,124.624878 1.000000,93.468658 
z"/>
<path fill="#0000FF" opacity="1.000000" stroke="none" 
	d="
M225.068695,43.923897 
	C207.019897,44.611465 188.971100,45.299030 170.466415,45.457764 
	C170.007019,30.285955 170.003510,15.642978 170.000000,1.000000 
	C188.020889,1.000000 206.041794,1.000000 224.531342,1.468657 
	C224.976715,15.981522 224.953415,30.025728 224.964996,44.033649 
	C224.999863,43.997364 225.068695,43.923897 225.068695,43.923897 
z"/>
<path fill="#800080" opacity="1.000000" stroke="none" 
	d="
M169.531342,1.000000 
	C170.003510,15.642978 170.007019,30.285955 170.022278,45.386787 
	C152.988983,45.887280 135.943939,45.929924 118.444092,45.451023 
	C117.992867,30.286318 117.996437,15.643159 118.000000,1.000000 
	C135.020889,1.000000 152.041794,1.000000 169.531342,1.000000 
z"/>
<path fill="#0000FF" opacity="1.000000" stroke="none" 
	d="
M117.531342,1.000000 
	C117.996437,15.643159 117.992867,30.286318 117.977074,45.387386 
	C102.993164,45.896809 88.021294,45.920685 73.049934,46.019974 
	C69.468925,46.043724 67.838661,44.880032 67.911720,40.871445 
	C68.148186,27.897175 68.000008,14.915895 68.000000,1.468657 
	C84.354225,1.000000 100.708458,1.000000 117.531342,1.000000 
z"/>
<path fill="#008000" opacity="1.000000" stroke="none" 
	d="
M1.000000,186.468658 
	C12.690817,186.335419 24.381636,186.670822 36.539314,186.991562 
	C37.006180,186.976898 36.939484,186.974060 36.966362,187.388702 
	C40.009632,202.188049 43.026028,216.572739 46.028648,230.971405 
	C46.014877,230.985397 45.987980,231.013947 45.553825,231.009018 
	C30.413111,230.336060 15.706555,229.668030 1.000000,229.000000 
	C1.000000,214.979111 1.000000,200.958206 1.000000,186.468658 
z"/>
<path fill="#FFFF00" opacity="1.000000" stroke="none" 
	d="
M20.530956,1.000000 
	C20.999832,13.779225 20.867369,26.560659 21.080690,39.336323 
	C21.144102,43.134048 19.881363,44.403908 16.220041,44.035065 
	C11.465063,43.556042 6.684283,43.333141 1.457305,43.000000 
	C1.000000,29.099728 1.000000,15.199457 1.000000,1.000000 
	C7.350857,1.000000 13.706386,1.000000 20.530956,1.000000 
z"/>
<path fill="#0000FF" opacity="1.000000" stroke="none" 
	d="
M225.999893,94.830048 
	C225.668549,78.176468 225.337204,61.522892 225.037292,44.396606 
	C225.068695,43.923897 224.999863,43.997364 225.432068,44.001694 
	C230.909515,43.670685 235.954758,43.335342 241.000000,43.000000 
	C241.000000,59.687561 241.000000,76.375122 240.544220,93.531342 
	C235.392258,94.276680 230.696075,94.553368 225.999893,94.830048 
z"/>
<path fill="#800080" opacity="1.000000" stroke="none" 
	d="
M225.919617,94.821564 
	C230.696075,94.553368 235.392258,94.276680 240.544220,94.000000 
	C241.000000,110.354225 241.000000,126.708458 241.000000,143.531342 
	C236.624619,144.321289 232.249222,144.642578 227.438644,144.425964 
	C226.588409,127.576279 226.173355,111.264511 225.758316,94.952744 
	C225.758316,94.952744 225.839325,94.813072 225.919617,94.821564 
z"/>
<path fill="#FFA500" opacity="1.000000" stroke="none" 
	d="
M241.000000,42.531342 
	C235.954758,43.335342 230.909515,43.670685 225.397186,44.037979 
	C224.953415,30.025728 224.976715,15.981522 225.000000,1.468657 
	C230.292770,1.000000 235.585541,1.000000 241.000000,1.000000 
	C241.000000,14.687359 241.000000,28.375021 241.000000,42.531342 
z"/>
<path fill="#000000" opacity="1.000000" stroke="none" 
	d="
M1.000000,229.479187 
	C15.706555,229.668030 30.413111,230.336060 45.591545,231.396057 
	C46.708950,234.858688 47.354473,237.929337 48.000000,241.000000 
	C32.456085,241.000000 16.912169,241.000000 1.000000,241.000000 
	C1.000000,237.327637 1.000000,233.643005 1.000000,229.479187 
z"/>
<path fill="#008000" opacity="1.000000" stroke="none" 
	d="
M48.468658,241.000000 
	C47.354473,237.929337 46.708950,234.858688 46.025703,231.400986 
	C45.987980,231.013947 46.014877,230.985397 46.483246,230.989624 
	C61.253456,231.999649 75.555298,233.005447 89.857140,234.011261 
	C89.857140,234.011261 90.008522,233.859543 90.030899,234.319092 
	C90.368851,236.852417 90.684425,238.926208 91.000000,241.000000 
	C76.979103,241.000000 62.958210,241.000000 48.468658,241.000000 
z"/>
<path fill="#FFA500" opacity="1.000000" stroke="none" 
	d="
M91.468658,241.000000 
	C90.684425,238.926208 90.368851,236.852417 90.115639,234.384689 
	C100.325249,234.994064 110.458176,236.185837 120.622971,236.958267 
	C137.545670,238.244217 154.488785,239.261307 171.711655,240.695801 
	C145.312439,241.000000 118.624878,241.000000 91.468658,241.000000 
z"/>
<path fill="#800080" opacity="1.000000" stroke="none" 
	d="
M37.008289,187.010208 
	C34.376461,171.705185 31.482365,156.405411 29.200142,141.014923 
	C27.681330,130.772614 27.085939,120.395416 25.978197,110.089233 
	C25.435488,105.039993 24.667198,100.014992 23.983530,94.567207 
	C39.331837,94.773918 54.697613,95.392441 70.528313,96.484207 
	C72.406868,112.582878 73.820496,128.208298 75.264977,144.174667 
	C91.342148,144.836319 107.073418,145.483734 122.966576,146.137817 
	C122.966576,142.319839 123.141068,139.322067 122.936470,136.350403 
	C122.034508,123.249954 121.023293,110.157028 120.051659,97.061378 
	C137.058914,97.050728 154.066177,97.040070 171.537399,97.554596 
	C172.721649,114.053902 173.441925,130.028015 174.091202,146.436218 
	C174.682510,156.951981 175.259705,167.040207 176.040466,177.112671 
	C176.476929,182.743179 177.251251,188.347488 177.873322,193.963608 
	C177.873322,193.963608 177.943756,193.948608 177.933319,193.913925 
	C165.093765,193.919403 152.257919,194.235092 139.437515,193.920761 
	C127.074326,193.617645 114.720673,192.762314 102.375443,191.956451 
	C95.855484,191.530838 89.362404,190.693542 81.970398,190.035645 
	C67.450386,189.349747 53.816097,188.689819 40.185909,187.953934 
	C39.089329,187.894730 38.020962,187.312973 36.939484,186.974060 
	C36.939484,186.974060 37.006180,186.976898 37.008289,187.010208 
z"/>
<path fill="#000000" opacity="1.000000" stroke="none" 
	d="
M174.162201,146.002121 
	C173.441925,130.028015 172.721649,114.053902 172.001709,97.622971 
	C174.399063,96.777428 176.788345,96.112129 179.194305,96.045059 
	C194.412430,95.620781 209.634232,95.329010 225.306580,94.973129 
	C226.173355,111.264511 226.588409,127.576279 227.012543,144.343231 
	C227.021637,144.798401 226.862320,144.914871 226.417557,144.962738 
	C208.702591,145.341110 191.432404,145.671616 174.162201,146.002121 
z"/>
<path fill="#FFFF00" opacity="1.000000" stroke="none" 
	d="
M119.581512,97.039932 
	C121.023293,110.157028 122.034508,123.249954 122.936470,136.350403 
	C123.141068,139.322067 122.966576,142.319839 122.966576,146.137817 
	C107.073418,145.483734 91.342148,144.836319 75.264977,144.174667 
	C73.820496,128.208298 72.406868,112.582878 70.970779,96.509415 
	C87.002678,96.380409 103.057022,96.699448 119.581512,97.039932 
z"/>
<path fill="#0000FF" opacity="1.000000" stroke="none" 
	d="
M36.966362,187.388702 
	C38.020962,187.312973 39.089329,187.894730 40.185909,187.953934 
	C53.816097,188.689819 67.450386,189.349747 81.546371,190.081924 
	C84.669327,204.479645 87.329536,218.824615 89.923447,233.590424 
	C75.555298,233.005447 61.253456,231.999649 46.497017,230.975647 
	C43.026028,216.572739 40.009632,202.188049 36.966362,187.388702 
z"/>
<path fill="#FFFF00" opacity="1.000000" stroke="none" 
	d="
M174.091202,146.436218 
	C191.432404,145.671616 208.702591,145.341110 226.426010,145.061050 
	C227.586075,159.667236 228.192245,174.229004 229.063110,188.774918 
	C229.313705,192.960571 227.898010,194.153885 223.756638,194.089539 
	C208.784332,193.856934 193.806335,193.990662 178.351898,193.974854 
	C177.251251,188.347488 176.476929,182.743179 176.040466,177.112671 
	C175.259705,167.040207 174.682510,156.951981 174.091202,146.436218 
z"/>
</svg>